HIERARCHY
ROOT mixamorig:Hips
{
	OFFSET 0.000000 201.639420 0.000000
	CHANNELS 6 Xposition Yposition Zposition Xrotation Yrotation Zrotation
	JOINT mixamorig:Spine
	{
		OFFSET 0.006200 19.524994 -2.481800
		CHANNELS 3 Xrotation Yrotation Zrotation
		JOINT mixamorig:Spine1
		{
			OFFSET -0.000900 22.835007 -2.825400
			CHANNELS 3 Xrotation Yrotation Zrotation
			JOINT mixamorig:Spine2
			{
				OFFSET -0.020600 26.552490 -3.193300
				CHANNELS 3 Xrotation Yrotation Zrotation
				JOINT mixamorig:Neck
				{
					OFFSET -0.060000 30.701813 1.352200
					CHANNELS 3 Xrotation Yrotation Zrotation
					JOINT mixamorig:Head
					{
						OFFSET -0.087200 22.547607 3.670900
						CHANNELS 3 Xrotation Yrotation Zrotation
						JOINT mixamorig:HeadTop_End
						{
							OFFSET -0.830600 40.355194 7.893500
							CHANNELS 3 Xrotation Yrotation Zrotation
							End Site
							{
								OFFSET 0.000000 30.592346 0.000000
							}
						}
						JOINT mixamorig:RightEye
						{
							OFFSET -6.302100 18.118591 16.197100
							CHANNELS 3 Xrotation Yrotation Zrotation
							End Site
							{
								OFFSET 0.000000 30.592346 0.000000
							}
						}
						JOINT mixamorig:LeftEye
						{
							OFFSET 6.741500 18.382690 16.401899
							CHANNELS 3 Xrotation Yrotation Zrotation
							End Site
							{
								OFFSET 0.000000 30.592346 0.000000
							}
						}
					}
				}
				JOINT mixamorig:LeftShoulder
				{
					OFFSET 11.924900 18.230499 1.425400
					CHANNELS 3 Xrotation Yrotation Zrotation
					JOINT mixamorig:LeftArm
					{
						OFFSET 25.435989 -0.697632 -5.229300
						CHANNELS 3 Xrotation Yrotation Zrotation
						JOINT mixamorig:LeftForeArm
						{
							OFFSET 54.684776 0.000000 0.000000
							CHANNELS 3 Xrotation Yrotation Zrotation
							JOINT mixamorig:LeftHand
							{
								OFFSET 55.098175 0.000000 0.000000
								CHANNELS 3 Xrotation Yrotation Zrotation
								JOINT mixamorig:LeftHandMiddle1
								{
									OFFSET 23.369751 0.000000 0.000000
									CHANNELS 3 Xrotation Yrotation Zrotation
									JOINT mixamorig:LeftHandMiddle2
									{
										OFFSET 6.378677 0.000000 0.000000
										CHANNELS 3 Xrotation Yrotation Zrotation
										JOINT mixamorig:LeftHandMiddle3
										{
											OFFSET 6.148331 0.000000 0.000000
											CHANNELS 3 Xrotation Yrotation Zrotation
											JOINT mixamorig:LeftHandMiddle4
											{
												OFFSET 6.582504 0.000000 0.000000
												CHANNELS 3 Xrotation Yrotation Zrotation
												End Site
												{
													OFFSET -1.168900 6.395691 1.028606
												}
											}
										}
									}
								}
								JOINT mixamorig:LeftHandThumb1
								{
									OFFSET 7.235672 -3.848206 5.434273
									CHANNELS 3 Xrotation Yrotation Zrotation
									JOINT mixamorig:LeftHandThumb2
									{
										OFFSET 6.568451 -3.792297 3.792300
										CHANNELS 3 Xrotation Yrotation Zrotation
										JOINT mixamorig:LeftHandThumb3
										{
											OFFSET 6.063080 -3.500519 3.500518
											CHANNELS 3 Xrotation Yrotation Zrotation
											JOINT mixamorig:LeftHandThumb4
											{
												OFFSET 4.793182 -2.767334 2.767349
												CHANNELS 3 Xrotation Yrotation Zrotation
												End Site
												{
													OFFSET 0.101639 6.054260 1.275483
												}
											}
										}
									}
								}
								JOINT mixamorig:LeftHandIndex1
								{
									OFFSET 23.101074 -0.309540 4.992809
									CHANNELS 3 Xrotation Yrotation Zrotation
									JOINT mixamorig:LeftHandIndex2
									{
										OFFSET 6.226883 0.000000 0.000000
										CHANNELS 3 Xrotation Yrotation Zrotation
										JOINT mixamorig:LeftHandIndex3
										{
											OFFSET 6.094330 0.000000 0.000000
											CHANNELS 3 Xrotation Yrotation Zrotation
											JOINT mixamorig:LeftHandIndex4
											{
												OFFSET 5.482605 0.000000 0.000000
												CHANNELS 3 Xrotation Yrotation Zrotation
												End Site
												{
													OFFSET -1.427902 5.233032 0.797164
												}
											}
										}
									}
								}
								JOINT mixamorig:LeftHandRing1
								{
									OFFSET 22.299240 0.021149 -3.964172
									CHANNELS 3 Xrotation Yrotation Zrotation
									JOINT mixamorig:LeftHandRing2
									{
										OFFSET 6.321869 0.000000 0.000000
										CHANNELS 3 Xrotation Yrotation Zrotation
										JOINT mixamorig:LeftHandRing3
										{
											OFFSET 5.899796 0.000000 0.000000
											CHANNELS 3 Xrotation Yrotation Zrotation
											JOINT mixamorig:LeftHandRing4
											{
												OFFSET 6.517899 0.000000 0.000000
												CHANNELS 3 Xrotation Yrotation Zrotation
												End Site
												{
													OFFSET -1.637299 6.232208 0.980890
												}
											}
										}
									}
								}
								JOINT mixamorig:LeftHandPinky1
								{
									OFFSET 20.463791 -0.302338 -8.562233
									CHANNELS 3 Xrotation Yrotation Zrotation
									JOINT mixamorig:LeftHandPinky2
									{
										OFFSET 6.908646 0.000000 0.000000
										CHANNELS 3 Xrotation Yrotation Zrotation
										JOINT mixamorig:LeftHandPinky3
										{
											OFFSET 4.622849 0.000000 0.000000
											CHANNELS 3 Xrotation Yrotation Zrotation
											JOINT mixamorig:LeftHandPinky4
											{
												OFFSET 5.216080 0.000000 0.000000
												CHANNELS 3 Xrotation Yrotation Zrotation
												End Site
												{
													OFFSET -0.606308 5.116241 0.814926
												}
											}
										}
									}
								}
							}
						}
					}
				}
				JOINT mixamorig:RightShoulder
				{
					OFFSET -12.001300 18.284088 1.348900
					CHANNELS 3 Xrotation Yrotation Zrotation
					JOINT mixamorig:RightArm
					{
						OFFSET -25.308500 -0.751312 -5.164599
						CHANNELS 3 Xrotation Yrotation Zrotation
						JOINT mixamorig:RightForeArm
						{
							OFFSET -54.684429 0.000000 0.000000
							CHANNELS 3 Xrotation Yrotation Zrotation
							JOINT mixamorig:RightHand
							{
								OFFSET -55.150291 0.000000 0.000000
								CHANNELS 3 Xrotation Yrotation Zrotation
								JOINT mixamorig:RightHandMiddle1
								{
									OFFSET -23.317566 0.000000 0.000000
									CHANNELS 3 Xrotation Yrotation Zrotation
									JOINT mixamorig:RightHandMiddle2
									{
										OFFSET -6.378403 0.000000 0.000000
										CHANNELS 3 Xrotation Yrotation Zrotation
										JOINT mixamorig:RightHandMiddle3
										{
											OFFSET -6.148193 0.000000 0.000000
											CHANNELS 3 Xrotation Yrotation Zrotation
											JOINT mixamorig:RightHandMiddle4
											{
												OFFSET -6.583389 0.000000 0.000000
												CHANNELS 3 Xrotation Yrotation Zrotation
												End Site
												{
													OFFSET 1.171692 6.395905 1.029786
												}
											}
										}
									}
								}
								JOINT mixamorig:RightHandThumb1
								{
									OFFSET -7.190521 -3.860474 5.435846
									CHANNELS 3 Xrotation Yrotation Zrotation
									JOINT mixamorig:RightHandThumb2
									{
										OFFSET -6.567429 -3.791718 3.791708
										CHANNELS 3 Xrotation Yrotation Zrotation
										JOINT mixamorig:RightHandThumb3
										{
											OFFSET -6.062469 -3.500153 3.500166
											CHANNELS 3 Xrotation Yrotation Zrotation
											JOINT mixamorig:RightHandThumb4
											{
												OFFSET -4.792618 -2.767029 2.767022
												CHANNELS 3 Xrotation Yrotation Zrotation
												End Site
												{
													OFFSET -0.100327 6.053253 1.276754
												}
											}
										}
									}
								}
								JOINT mixamorig:RightHandIndex1
								{
									OFFSET -23.048981 -0.310791 4.992554
									CHANNELS 3 Xrotation Yrotation Zrotation
									JOINT mixamorig:RightHandIndex2
									{
										OFFSET -6.227539 0.000000 0.000000
										CHANNELS 3 Xrotation Yrotation Zrotation
										JOINT mixamorig:RightHandIndex3
										{
											OFFSET -6.095047 0.000000 0.000000
											CHANNELS 3 Xrotation Yrotation Zrotation
											JOINT mixamorig:RightHandIndex4
											{
												OFFSET -5.484772 0.000000 0.000000
												CHANNELS 3 Xrotation Yrotation Zrotation
												End Site
												{
													OFFSET 1.420593 5.237305 0.797056
												}
											}
										}
									}
								}
								JOINT mixamorig:RightHandRing1
								{
									OFFSET -22.246323 0.020569 -3.963762
									CHANNELS 3 Xrotation Yrotation Zrotation
									JOINT mixamorig:RightHandRing2
									{
										OFFSET -6.322128 0.000000 0.000000
										CHANNELS 3 Xrotation Yrotation Zrotation
										JOINT mixamorig:RightHandRing3
										{
											OFFSET -5.900024 0.000000 0.000000
											CHANNELS 3 Xrotation Yrotation Zrotation
											JOINT mixamorig:RightHandRing4
											{
												OFFSET -6.518356 0.000000 0.000000
												CHANNELS 3 Xrotation Yrotation Zrotation
												End Site
												{
													OFFSET 1.636398 6.232697 0.982186
												}
											}
										}
									}
								}
								JOINT mixamorig:RightHandPinky1
								{
									OFFSET -20.411011 -0.303314 -8.561701
									CHANNELS 3 Xrotation Yrotation Zrotation
									JOINT mixamorig:RightHandPinky2
									{
										OFFSET -6.907349 0.000000 0.000000
										CHANNELS 3 Xrotation Yrotation Zrotation
										JOINT mixamorig:RightHandPinky3
										{
											OFFSET -4.623840 0.000000 0.000000
											CHANNELS 3 Xrotation Yrotation Zrotation
											JOINT mixamorig:RightHandPinky4
											{
												OFFSET -5.218353 0.000000 0.000000
												CHANNELS 3 Xrotation Yrotation Zrotation
												End Site
												{
													OFFSET 0.602097 5.118835 0.816273
												}
											}
										}
									}
								}
							}
						}
					}
				}
			}
		}
	}
	JOINT mixamorig:LeftUpLeg
	{
		OFFSET 18.168400 -13.561905 -0.039000
		CHANNELS 3 Xrotation Yrotation Zrotation
		JOINT mixamorig:LeftLeg
		{
			OFFSET 0.577358 -80.825211 -3.695000
			CHANNELS 3 Xrotation Yrotation Zrotation
			JOINT mixamorig:LeftFoot
			{
				OFFSET -0.577356 -83.370262 -6.520700
				CHANNELS 3 Xrotation Yrotation Zrotation
				JOINT mixamorig:LeftToeBase
				{
					OFFSET 0.750401 -20.798306 25.135401
					CHANNELS 3 Xrotation Yrotation Zrotation
					JOINT mixamorig:LeftToe_End
					{
						OFFSET -0.000500 0.001200 19.917799
						CHANNELS 3 Xrotation Yrotation Zrotation
						End Site
						{
							OFFSET 0.000000 19.917805 0.000000
						}
					}
				}
			}
		}
	}
	JOINT mixamorig:RightUpLeg
	{
		OFFSET -18.162500 -13.585098 -0.041000
		CHANNELS 3 Xrotation Yrotation Zrotation
		JOINT mixamorig:RightLeg
		{
			OFFSET -0.595024 -80.945297 -3.631900
			CHANNELS 3 Xrotation Yrotation Zrotation
			JOINT mixamorig:RightFoot
			{
				OFFSET 0.595024 -83.218193 -6.561200
				CHANNELS 3 Xrotation Yrotation Zrotation
				JOINT mixamorig:RightToeBase
				{
					OFFSET -0.753601 -20.807106 25.115000
					CHANNELS 3 Xrotation Yrotation Zrotation
					JOINT mixamorig:RightToe_End
					{
						OFFSET 0.000299 0.001700 19.918200
						CHANNELS 3 Xrotation Yrotation Zrotation
						End Site
						{
							OFFSET 0.000000 19.918203 0.000000
						}
					}
				}
			}
		}
	}
}
MOTION
Frames: 4
Frame Time: 0.033333
-5.259890 197.000427 5.002550 -6.527176 7.440904 -0.721927 2.719564 1.590137 2.723624 2.229757 0.462798 2.709336 1.815967 0.462784 2.663381 12.069588 -2.397796 -0.979291 1.367183 -8.878461 -6.544922 -0.000000 0.000000 -0.000000 -0.000000 0.000000 -0.000000 -0.000000 0.000000 -0.000000 0.980235 -16.729759 -12.817466 1.380165 -1.285206 -71.138708 -0.000001 -0.000000 0.000023 -34.595533 -2.769037 -5.684798 -0.073345 2.742583 -16.488393 0.269697 1.758707 -17.435308 0.301538 1.857012 -18.444487 0.000001 -0.000002 0.000003 -0.945041 2.085476 4.986307 11.826357 25.405015 17.117660 -13.812408 3.560479 9.013183 0.000001 -0.000001 -0.000005 0.084268 -0.924057 -8.185775 0.267788 1.752615 -17.372878 0.057674 0.820890 -8.037360 -0.000000 0.000001 -0.000002 0.084985 3.528588 -21.560621 0.386260 2.093846 -20.902003 0.282942 1.800317 -17.861734 0.000000 -0.000002 0.000001 0.961163 5.610181 -27.583167 0.269771 1.758965 -17.437943 0.242693 1.670360 -16.532896 0.000000 -0.000001 -0.000003 0.966138 8.437341 16.887342 28.204752 8.686319 58.059743 -0.000001 3.688156 -0.000004 -18.173156 -1.917480 9.747775 0.380994 -4.016460 23.477879 1.260461 -3.188032 43.136534 0.727012 -2.500565 32.417594 -0.000001 0.000001 -0.000000 -22.530627 4.903170 4.908358 9.518479 -27.760657 -21.071086 5.457335 -23.437468 -6.234867 0.000001 0.000001 -0.000005 1.062302 -0.350875 19.899445 1.041856 -2.937712 39.046993 0.321170 -1.701149 21.381521 -0.000000 0.000000 -0.000001 -0.717288 -1.494731 23.600423 0.643377 -2.363857 30.447105 0.567368 -2.229607 28.550706 0.000003 -0.000004 -0.000002 1.085906 -5.686125 22.733439 0.336829 -1.740583 21.902866 0.310209 -1.672901 21.009281 0.000000 -0.000001 -0.000002 -17.600030 15.131492 12.417596 24.432155 1.008079 4.723498 -2.615375 -12.236175 -11.103971 -5.376457 0.000020 0.000001 0.000000 0.000001 0.000000 -1.364773 -10.100473 4.933376 19.879645 -9.739379 -6.778122 -11.368464 -15.852939 4.113872 -6.948364 -0.000002 -0.000001 -0.000000 0.000001 0.000000 
-4.998669 197.225342 4.907269 -6.052154 6.326370 -0.889653 2.675153 1.549457 2.690339 2.323627 0.402816 2.709165 1.868222 0.402406 2.651738 11.576149 -2.092929 -0.883113 0.830123 -7.486980 -5.921343 -0.000001 -0.000000 -0.000000 -0.000001 -0.000000 -0.000000 -0.000001 -0.000000 -0.000000 0.973021 -16.881873 -12.893318 1.489841 -0.193289 -71.539121 -0.000003 -0.000001 -0.000004 -33.441412 -2.085258 -5.380675 -0.045307 2.842770 -16.552359 0.269400 1.757772 -17.425686 0.301204 1.856018 -18.434346 0.000001 -0.000002 0.000001 -0.610938 2.223746 4.844141 11.771008 25.366872 17.305753 -13.852448 3.618595 9.046407 -0.000002 0.000004 0.000002 0.109648 -0.882559 -8.256112 0.267708 1.752370 -17.370354 0.057634 0.820635 -8.034921 -0.000000 0.000001 -0.000000 0.096610 3.562973 -21.660789 0.386223 2.093749 -20.900980 0.282850 1.800049 -17.859008 0.000002 0.000000 0.000002 0.994182 5.653272 -27.663475 0.269998 1.759655 -17.445012 0.242890 1.671012 -16.539564 0.000001 -0.000002 0.000002 0.974405 8.574771 16.795621 27.644526 6.868327 58.342130 -0.000013 2.537497 -0.000001 -14.582049 -4.211712 10.110750 0.391764 -4.052728 19.475837 1.103365 -3.011864 40.232058 0.647581 -2.370989 30.548981 0.000002 0.000002 -0.000001 -21.901218 4.412077 1.458848 9.977222 -27.585614 -19.715648 3.995908 -23.458928 -7.260566 -0.000001 -0.000000 -0.000003 1.225517 -0.253447 15.752078 0.931947 -2.796942 36.850032 0.278554 -1.588026 19.896425 0.000001 -0.000000 -0.000001 -0.553191 -1.507925 20.499319 0.554136 -2.205143 28.208623 0.482760 -2.066639 26.293775 -0.000003 -0.000000 0.000001 0.940690 -5.715196 18.308476 0.302339 -1.652252 20.737755 0.277132 -1.584122 19.845531 0.000002 0.000002 0.000002 -17.547668 15.186396 12.373158 23.937556 0.687511 4.586980 -2.424821 -10.853194 -10.962046 -5.353486 -0.000009 0.000003 0.000001 0.000003 0.000000 -1.752917 -10.103975 4.658170 19.421001 -9.765580 -6.605883 -11.024526 -14.621347 4.144643 -6.960362 -0.000004 0.000003 -0.000000 -0.000002 -0.000000 
-4.778110 197.418564 4.745270 -5.589703 5.085850 -1.125857 2.643955 1.532736 2.681303 2.427192 0.378847 2.725930 1.933558 0.377381 2.658370 11.059849 -1.796446 -0.761483 0.199261 -6.142646 -5.250598 0.000001 -0.000000 0.000000 0.000001 -0.000000 0.000000 0.000001 -0.000000 0.000000 0.979849 -17.054147 -12.860021 1.661560 0.422350 -71.953816 -0.000004 -0.000004 -0.000016 -32.604553 -1.639576 -5.088855 -0.043088 2.846209 -16.498749 0.269215 1.757183 -17.419682 0.301012 1.855429 -18.428245 -0.000001 0.000000 0.000004 -0.553114 2.206866 4.797468 11.767917 25.364608 17.316170 -13.848145 3.617908 9.034922 0.000001 0.000001 -0.000001 0.100601 -0.899186 -8.186684 0.267640 1.752170 -17.368271 0.057607 0.820438 -8.032939 -0.000000 -0.000001 -0.000002 0.095271 3.557928 -21.627319 0.386278 2.093885 -20.902467 0.282874 1.800113 -17.859751 -0.000001 -0.000000 -0.000001 0.986598 5.644287 -27.628677 0.269859 1.759223 -17.440586 0.242757 1.670572 -16.535089 -0.000001 -0.000001 0.000002 0.957081 8.904106 16.894353 26.167805 4.868348 58.493849 0.000002 1.292167 -0.000026 -11.639613 -6.491784 10.118084 0.409228 -4.113120 18.800326 0.971148 -2.848463 37.646141 0.583181 -2.258386 28.954231 0.000000 0.000000 -0.000001 -20.366820 4.247756 -0.132296 9.970132 -27.123535 -19.855995 2.350924 -23.738275 -7.908083 -0.000002 0.000000 0.000001 1.366359 -0.470808 14.511867 0.837451 -2.666372 34.867648 0.243623 -1.488018 18.595043 -0.000001 -0.000001 0.000000 -0.501842 -1.610853 20.207786 0.488633 -2.078493 26.456101 0.421210 -1.937177 24.531924 -0.000003 0.000002 0.000001 0.846172 -5.427089 18.357515 0.274968 -1.578109 19.766931 0.250897 -1.509438 18.873046 -0.000001 -0.000000 0.000000 -17.560353 15.229524 12.413865 23.539134 0.330435 4.497754 -2.288298 -9.343835 -10.805797 -5.330279 0.000005 0.000003 0.000000 0.000001 0.000000 -2.182205 -10.090894 4.443523 19.018508 -9.800020 -6.379882 -10.690895 -13.290802 4.128930 -6.984062 0.000001 0.000000 -0.000000 -0.000000 0.000000 
-4.593803 197.578720 4.534042 -5.153395 3.799722 -1.416153 2.618703 1.519176 2.689035 2.527650 0.357654 2.755404 1.999163 0.354539 2.678585 10.578961 -1.510495 -0.612296 -0.530464 -4.810489 -4.640420 -0.000000 0.000000 -0.000000 -0.000000 0.000000 -0.000000 -0.000000 0.000000 -0.000000 0.994347 -17.190630 -12.748664 1.966111 0.450949 -72.328814 -0.000001 -0.000002 0.000005 -32.210875 -1.452393 -4.941005 -0.053489 2.805682 -16.431888 0.269177 1.757049 -17.418328 0.300969 1.855312 -18.427097 -0.000000 -0.000000 0.000004 -0.660501 2.148874 4.835450 11.792603 25.381743 17.231871 -13.826285 3.589410 9.012184 0.000001 0.000003 0.000002 0.077842 -0.933874 -8.095705 0.267609 1.752042 -17.367061 0.057591 0.820325 -8.031863 0.000001 0.000000 -0.000002 0.090579 3.542443 -21.553468 0.386546 2.094580 -20.909659 0.283167 1.801012 -17.868967 0.000001 -0.000001 -0.000004 0.958722 5.608296 -27.566099 0.269493 1.758043 -17.428481 0.242416 1.669416 -16.523285 -0.000002 0.000001 -0.000000 0.931287 9.222945 17.053495 24.477316 3.700236 58.305746 0.000014 0.487922 0.000012 -9.556819 -8.108965 9.359594 0.424849 -4.131788 20.468631 0.857604 -2.695033 35.298319 0.529950 -2.159489 27.573718 0.000004 0.000001 -0.000002 -18.184240 4.495416 -0.191574 9.788134 -26.570139 -20.650350 0.832880 -24.083481 -8.218556 0.000000 -0.000001 -0.000001 1.463495 -0.819454 15.178330 0.751611 -2.538821 32.976830 0.212864 -1.393306 17.371954 0.000003 -0.000001 -0.000002 -0.540307 -1.710302 21.876206 0.440949 -1.979852 25.109553 0.376469 -1.836064 23.173225 -0.000000 0.000002 0.000002 0.756485 -4.962824 21.594470 0.248856 -1.503478 18.795576 0.225872 -1.434212 17.899264 -0.000002 -0.000001 0.000001 -17.639945 15.275482 12.545058 23.237953 -0.029616 4.438763 -2.213233 -7.833776 -10.629806 -5.309550 0.000004 0.000003 0.000000 0.000002 0.000000 -2.621996 -10.066763 4.285437 18.669289 -9.841146 -6.084279 -10.376850 -11.925924 4.056978 -7.010653 -0.000007 0.000000 -0.000000 0.000000 -0.000000 
